<svg xmlns="http://www.w3.org/2000/svg" width="1.744in" height="1.293in" viewBox="0 0 125.557 93.115">
  <path d="M122.26,31.024a16,16,0,0,0-8.485-2.721c-6.283,0-11.4,5.636-11.4,12.7,0,7.125,5.117,12.565,11.918,12.565,2.915,0,5.7-1.036,8.874-3.3l1.619,10.688a23.6,23.6,0,0,1-10.817,2.591A22.434,22.434,0,0,1,91.687,40.934c0-12.825,9.845-22.541,22.865-22.541a24.438,24.438,0,0,1,9.911,2.008Z"/>
  <path d="M11.246,24.071l7.837,21.246,7.708-21.246H37.414L19.667,68.505H17.789L.559,24.071Z"/>
  <polygon points="56.571 1.721 77.862 1.497 65.393 34.117 81.312 30.226 55.508 91.114 62.667 41.234 50.165 44.489 56.571 1.721" fill="#fcee21"/>
</svg>
