<?xml version="1.0" encoding="iso-8859-1"?>
<!-- Generator: Adobe Illustrator 26.0.1, SVG Export Plug-In . SVG Version: 6.00 Build 0)  -->
<svg version="1.1" id="Layer_1" xmlns="http://www.w3.org/2000/svg" xmlns:xlink="http://www.w3.org/1999/xlink" x="0px" y="0px"
	 width="125.557px" height="93.115px" viewBox="0 0 125.557 93.115" enable-background="new 0 0 125.557 93.115"
	 xml:space="preserve">
<g>
	<g>
		<path d="M122.26,31.024c-2.655-1.749-5.765-2.721-8.485-2.721c-6.283,0-11.4,5.636-11.4,12.696
			c0,7.125,5.117,12.565,11.918,12.565c2.915,0,5.7-1.036,8.874-3.303l1.619,10.688c-2.656,1.555-7.061,2.591-10.817,2.591
			c-12.307,0-22.282-10.104-22.282-22.606c0-12.825,9.845-22.541,22.865-22.541c3.562,0,6.737,0.648,9.911,2.008L122.26,31.024z"/>
	</g>
	<g>
		<path d="M11.246,24.071l7.837,21.246l7.708-21.246h10.623L19.667,68.505h-1.878L0.559,24.071H11.246z"/>
	</g>
	<polygon stroke="#000000" stroke-width="0.1787" stroke-miterlimit="10" points="56.571,1.721 77.862,1.497 65.393,34.117 
		81.312,30.226 55.508,91.114 62.667,41.234 50.165,44.489 	"/>
</g>
<g>
</g>
<g>
</g>
<g>
</g>
<g>
</g>
<g>
</g>
<g>
</g>
<g>
</g>
<g>
</g>
<g>
</g>
<g>
</g>
<g>
</g>
<g>
</g>
<g>
</g>
<g>
</g>
<g>
</g>
</svg>
